<svg width="82" height="165" viewBox="0 0 82 165" fill="none" xmlns="http://www.w3.org/2000/svg">
<path d="M82.5001 103.074C71.1434 103.074 61.9097 93.8397 61.9097 82.483C61.9097 71.1263 71.1434 61.8926 82.5001 61.8926C93.8568 61.8926 103.091 71.1263 103.091 82.483C103.073 93.8397 93.8396 103.074 82.5001 103.074ZM82.5001 70.5395C75.907 70.5395 70.5394 75.9072 70.5394 82.5003C70.5394 89.0934 75.907 94.461 82.5001 94.461C89.0932 94.461 94.4609 89.0934 94.4609 82.5003C94.4609 75.9072 89.0932 70.5395 82.5001 70.5395Z" fill="#FFA38C"/>
<path d="M82.5344 118.762C80.049 118.762 77.5637 118.503 75.1128 118.003C65.6374 116.035 57.491 110.478 52.1751 102.383C46.8592 94.2882 45.0296 84.6056 46.9972 75.1129C48.7059 66.8975 53.2451 59.4932 59.7519 54.2463C66.1897 49.0685 74.2499 46.2207 82.4653 46.2207C84.9507 46.2207 87.4361 46.4796 89.8869 46.9801C99.3623 48.9477 107.509 54.5052 112.825 62.5999C118.141 70.6945 119.97 80.3771 118.002 89.8698C116.294 98.0853 111.755 105.49 105.248 110.736C98.7928 115.914 90.7326 118.762 82.5344 118.762ZM82.4653 54.8504C69.469 54.8504 58.095 64.1014 55.4371 76.8561C52.3304 91.7683 61.9439 106.439 76.856 109.546C78.7201 109.942 80.6358 110.132 82.5171 110.132C95.5134 110.132 106.887 100.881 109.545 88.1266C111.047 80.8949 109.649 73.5251 105.61 67.3462C101.571 61.1673 95.3581 56.9388 88.1264 55.4372C86.2624 55.0575 84.3466 54.8504 82.4653 54.8504Z" fill="#FFA38C"/>
<path d="M82.5518 133.933C80.9639 133.933 79.3587 133.864 77.7536 133.708C64.0669 132.449 51.7092 125.924 42.9241 115.362C34.1391 104.799 30.0141 91.4402 31.274 77.7707C32.4649 64.9297 38.3676 53.0724 47.9294 44.4255C57.422 35.813 69.6762 31.084 82.4309 31.084C84.0188 31.084 85.6239 31.153 87.229 31.3083C100.916 32.5683 113.274 39.0923 122.059 49.6551C130.844 60.2179 134.969 73.5767 133.709 87.2634C132.518 100.104 126.615 111.962 117.053 120.609C107.561 129.186 95.3065 133.933 82.5518 133.933ZM82.4309 39.6964C60.2181 39.6964 41.9231 56.4036 39.8692 78.5647C37.6945 102.072 55.0402 122.956 78.5476 125.131C79.8765 125.251 81.2228 125.32 82.5518 125.32C104.765 125.32 123.06 108.613 125.113 86.4522C127.288 62.9448 109.942 42.061 86.4351 39.8863C85.1062 39.7482 83.7599 39.6964 82.4309 39.6964Z" fill="#FFA38C"/>
<path d="M82.5345 149.398C81.7578 149.398 80.9639 149.381 80.1699 149.364C71.1433 149.053 62.4446 146.982 54.3154 143.202C46.4623 139.56 39.4895 134.486 33.5523 128.135C27.615 121.783 23.0586 114.465 19.9691 106.388C16.7589 98.0169 15.3091 89.1973 15.6197 80.1707C16.2238 62.7214 23.4728 46.4457 36.0549 34.3296C48.5852 22.248 65.068 15.5859 82.4482 15.5859C83.2249 15.5859 84.0188 15.6032 84.8127 15.6204C93.8394 15.9311 102.538 18.0022 110.667 21.7821C118.52 25.4238 125.493 30.4981 131.43 36.8495C137.368 43.201 141.924 50.519 145.014 58.5964C148.224 66.9672 149.674 75.7868 149.363 84.8134C148.759 102.263 141.51 118.538 128.928 130.654C116.397 142.753 99.9147 149.398 82.5345 149.398ZM82.4482 24.2156C50.898 24.2156 25.3368 48.9311 24.2494 80.4813C23.1276 112.601 48.3609 139.629 80.4634 140.751C81.1538 140.768 81.8441 140.786 82.5172 140.786C114.067 140.786 139.629 116.07 140.716 84.5201C141.838 52.4003 116.605 25.372 84.5021 24.2502C83.8289 24.2329 83.1386 24.2156 82.4482 24.2156Z" fill="#FFA38C"/>
<path d="M82.5 165C71.3677 165 60.5633 162.825 50.3802 158.51C40.5596 154.351 31.7401 148.414 24.1632 140.837C16.5863 133.26 10.6318 124.44 6.48956 114.62C2.19196 104.437 0 93.6323 0 82.5C0 71.3677 2.1747 60.5633 6.48956 50.3802C10.6491 40.5596 16.5863 31.7401 24.1632 24.1632C31.7401 16.5863 40.5596 10.6318 50.3802 6.48956C60.5633 2.19196 71.3677 0 82.5 0C93.6323 0 104.437 2.1747 114.62 6.48956C124.44 10.6491 133.26 16.5863 140.837 24.1632C148.414 31.7401 154.368 40.5596 158.51 50.3802C162.808 60.5633 165 71.3677 165 82.5C165 93.6323 162.825 104.437 158.51 114.62C154.351 124.44 148.414 133.26 140.837 140.837C133.26 148.414 124.44 154.368 114.62 158.51C104.437 162.825 93.6323 165 82.5 165ZM82.5 8.61243C41.7678 8.61243 8.62971 41.7505 8.62971 82.4827C8.62971 123.215 41.7678 156.353 82.5 156.353C123.232 156.353 156.37 123.215 156.37 82.4827C156.37 41.7678 123.232 8.61243 82.5 8.61243Z" fill="#FFA38C"/>
</svg>
