<svg xmlns="http://www.w3.org/2000/svg" viewBox="0 0 200 200">
  <path d="M100,10 
           C110,10 120,15 125,25
           C135,20 145,25 150,35
           C160,30 170,35 175,45
           C185,40 190,50 190,60
           C190,70 185,80 175,85
           C180,95 175,105 165,110
           C170,120 165,130 155,135
           C160,145 155,155 145,160
           C150,170 145,180 135,185
           C140,195 130,200 120,200
           C110,200 100,195 95,185
           C85,190 75,185 70,175
           C60,180 50,175 45,165
           C35,170 25,165 20,155
           C10,160 5,150 5,140
           C5,130 10,120 20,115
           C15,105 20,95 30,90
           C25,80 30,70 40,65
           C35,55 40,45 50,40
           C45,30 50,20 60,15
           C55,5 65,0 75,0
           C85,0 95,5 100,10 Z" 
        fill="black"/>
</svg>