<svg width="69" height="72" viewBox="0 0 69 72" fill="none" xmlns="http://www.w3.org/2000/svg">
<path fill-rule="evenodd" clip-rule="evenodd" d="M17.1332 26.1098C15.8296 23.6773 15.0956 20.9295 15.0956 18.0207C15.0956 8.06813 23.6884 0 34.2883 0V16.2246C35.7364 13.8672 37.7463 11.8447 40.267 10.3786C48.8701 5.37465 60.1647 8.74596 65.4941 17.9086L51.3909 26.1117C54.1643 26.1835 56.9293 26.913 59.4664 28.367C68.1016 33.3155 70.8292 44.7826 65.5588 53.9793L51.4435 45.8902C52.7471 48.3227 53.4811 51.0705 53.4811 53.9793C53.4811 63.9319 44.8882 72 34.2883 72V55.7754C32.8402 58.1328 30.8303 60.1553 28.3096 61.6214C19.7065 66.6253 8.41194 63.254 3.08253 54.0914L17.1857 45.8883C14.4123 45.8165 11.6474 45.087 9.11016 43.633C0.475056 38.6844 -2.25258 27.2174 3.01782 18.0207L17.1332 26.1098ZM34.2984 35.9587C34.295 35.9528 34.2917 35.947 34.2883 35.9411L34.2883 35.9586C34.2917 35.9586 34.295 35.9587 34.2984 35.9587ZM34.2883 36.0413V36.0589L34.2782 36.0413L34.2883 36.0413Z" fill="#FEA57D"/>
</svg>
