<svg width="133" height="143" viewBox="0 0 133 143" fill="none" xmlns="http://www.w3.org/2000/svg">
<path d="M136.315 0C130.271 0 125.053 9.74452 122.636 23.832C119.91 16.5215 116.184 12.0118 112.074 12.0118C106.031 12.0118 100.813 21.7563 98.3954 35.8438C95.6696 28.5333 91.9435 24.0237 87.8339 24.0237C81.7905 24.0237 76.5723 33.7682 74.155 47.8556C71.4292 40.5452 67.7031 36.0355 63.5936 36.0355C57.5501 36.0355 52.3319 45.78 49.9146 59.8674C47.1888 52.557 43.4627 48.0473 39.3531 48.0473C33.3097 48.0473 28.0915 57.7918 25.6741 71.8793C22.9484 64.5688 19.2223 60.0592 15.1128 60.0592C6.76866 60.0592 0 78.6229 0 101.53C0 124.436 6.76866 143 15.1128 143C21.1562 143 26.3744 133.256 28.7918 119.168C31.5176 126.479 35.2436 130.988 39.3531 130.988C45.3966 130.988 50.6148 121.244 53.0321 107.156C55.7579 114.467 59.484 118.976 63.5936 118.976C69.637 118.976 74.8551 109.232 77.2725 95.1444C79.9983 102.455 83.7244 106.965 87.8339 106.965C93.8774 106.965 99.0956 97.22 101.513 83.1326C104.239 90.443 107.965 94.9527 112.074 94.9527C118.118 94.9527 123.336 85.2082 125.753 71.1207C128.479 78.4312 132.205 82.9408 136.315 82.9408C144.659 82.9408 151.427 64.3771 151.427 41.4704C151.427 18.5637 144.667 0 136.315 0Z" fill="#BF3C1F"/>
</svg>
