<svg width="100" height="36" viewBox="0 0 100 36" fill="none" xmlns="http://www.w3.org/2000/svg">
<path d="M49.7896 0.46167C77.0856 0.46167 99.2133 22.589 99.2134 49.8845C99.2134 77.1801 77.0857 99.3074 49.7896 99.3074C22.4935 99.3073 0.365723 77.1801 0.365723 49.8845C0.365803 22.589 22.4935 0.46174 49.7896 0.46167Z" fill="#FFBFA1" stroke="white" stroke-width="0.0799"/>
<path d="M49.7896 86.6402C70.0897 86.6402 86.5461 70.1841 86.5461 49.8844C86.5461 29.5848 70.0897 13.1287 49.7896 13.1287C29.4896 13.1287 13.0332 29.5848 13.0332 49.8844C13.0332 70.1841 29.4896 86.6402 49.7896 86.6402Z" fill="#FFBFA1" stroke="white" stroke-width="0.178417" stroke-miterlimit="10"/>
<path d="M72.4421 53.435C74.4075 40.9328 65.8656 29.2046 53.3632 27.2393C40.8609 25.2739 29.1325 33.8156 27.1671 46.3178C25.2017 58.8199 33.7435 70.5481 46.2459 72.5134C58.7483 74.4788 70.4767 65.9371 72.4421 53.435Z" fill="#FFBFA1" stroke="white" stroke-width="0.178417" stroke-miterlimit="10"/>
<path d="M57.5062 57.6101C61.7709 53.3456 61.7709 46.4313 57.5062 42.1668C53.2416 37.9022 46.3272 37.9022 42.0626 42.1668C37.798 46.4313 37.798 53.3455 42.0626 57.6101C46.3273 61.8746 53.2416 61.8747 57.5062 57.6101Z" fill="#FFBFA1" stroke="white" stroke-width="0.178417" stroke-miterlimit="10"/>
</svg>
