<svg width="68" height="72" viewBox="0 0 68 72" fill="none" xmlns="http://www.w3.org/2000/svg">
<path fill-rule="evenodd" clip-rule="evenodd" d="M16.8001 26.1098C15.4966 23.6773 14.7625 20.9295 14.7625 18.0207C14.7625 8.06813 23.3554 0 33.9553 0V16.2246C35.4034 13.8672 37.4133 11.8447 39.934 10.3786C48.5371 5.37465 59.8317 8.74596 65.1611 17.9086L51.0579 26.1117C53.8313 26.1835 56.5962 26.913 59.1334 28.367C67.7685 33.3155 70.4962 44.7826 65.2258 53.9793L51.1105 45.8902C52.414 48.3227 53.1481 51.0705 53.1481 53.9793C53.1481 63.9319 44.5552 72 33.9553 72V55.7754C32.5072 58.1328 30.4973 60.1553 27.9766 61.6214C19.3735 66.6253 8.07893 63.254 2.74952 54.0914L16.8527 45.8883C14.0793 45.8165 11.3144 45.087 8.77716 43.633C0.142048 38.6844 -2.58559 27.2174 2.68481 18.0207L16.8001 26.1098ZM33.9654 35.9587C33.962 35.9528 33.9587 35.947 33.9553 35.9411L33.9553 35.9586C33.9587 35.9586 33.962 35.9587 33.9654 35.9587ZM33.9553 36.0413V36.0589L33.9452 36.0413L33.9553 36.0413Z" fill="#FEA57D"/>
</svg>
